<svg viewBox="0 0 40 40">
	<circle cx="20" cy="20" r="19" />
	<g class="marks">
		<line x1="15" y1="0" x2="16" y2="0" />
		<line x1="15" y1="0" x2="16" y2="0" />
		<line x1="15" y1="0" x2="16" y2="0" />
		<line x1="15" y1="0" x2="16" y2="0" />
		<line x1="15" y1="0" x2="16" y2="0" />
		<line x1="15" y1="0" x2="16" y2="0" />
		<line x1="15" y1="0" x2="16" y2="0" />
		<line x1="15" y1="0" x2="16" y2="0" />
		<line x1="15" y1="0" x2="16" y2="0" />
		<line x1="15" y1="0" x2="16" y2="0" />
		<line x1="15" y1="0" x2="16" y2="0" />
		<line x1="15" y1="0" x2="16" y2="0" />
	</g>
	<text x="0" y="0" class="tiaText">#TIA</text>
	<line x1="0" y1="0" x2="9" y2="0" class="hour" />
	<line x1="0" y1="0" x2="13" y2="0" class="minute" />
	<line x1="0" y1="0" x2="16" y2="0" class="seconds" />
	<circle cx="20" cy="20" r="0.7" class="pin" />
</svg>
