<?xml version="1.0" encoding="UTF-8"?>
<svg width="12px" height="7px" viewBox="0 0 12 7" version="1.1" xmlns="http://www.w3.org/2000/svg" xmlns:xlink="http://www.w3.org/1999/xlink">
    <title>chevron</title>
    <g id="Page-1" stroke="none" stroke-width="1" fill="none" fill-rule="evenodd">
        <g id="Artboard" transform="translate(-227.000000, -80.000000)" fill="#000000" fill-rule="nonzero">
            <g id="chevron" transform="translate(227.000000, 80.000000)">
                <path d="M11.8801381,5.72521229 L6.27644877,0.120317042 C6.19638644,0.0401478085 6.10427896,0 6.00008422,0 C5.89588947,0 5.80361353,0.0401478085 5.72350908,0.120317042 L0.120283019,5.72521229 C0.0400101077,5.80550791 0,5.89764144 0,6.00190779 C0,6.106132 0.0401364554,6.19839192 0.120283019,6.27851903 L0.721361184,6.87972509 C0.801507747,6.95989432 0.893741574,7 0.997936318,7 C1.10213106,7 1.19436489,6.95989432 1.27451145,6.87972509 L6.00008422,2.1528999 L10.7258254,6.88001998 C10.8059299,6.96018921 10.8982058,7 11.0022321,7 C11.1065953,7 11.1988291,6.95993645 11.2789336,6.88001998 L11.880096,6.27856115 C11.9602004,6.19843405 12,6.106132 12,6.00194992 C12,5.89764144 11.9602426,5.80538153 11.8801381,5.72521229 Z" id="Path"></path>
            </g>
        </g>
    </g>
</svg>